<svg xmlns="http://www.w3.org/2000/svg" width="800" height="1440" viewBox="0 0 800 1440">
<title>Deep Sea — registration overlay (2× logical). Safe region in green; solids in red; sensors dashed blue; ramps orange.</title>
<polygon points="140.0,1440.0 140.0,1424.0 28.0,1200.0 28.0,428.0 30.0,388.3 36.1,349.0 46.2,310.6 60.2,273.4 77.8,238.0 99.0,204.6 123.6,173.7 151.1,145.6 181.3,120.6 214.0,98.9 248.7,80.9 285.0,66.6 322.7,56.3 361.1,50.1 400.0,48.0 438.9,50.1 477.3,56.3 515.0,66.6 551.3,80.9 586.0,98.9 618.7,120.6 648.9,145.6 676.4,173.7 701.0,204.6 722.2,238.0 739.8,273.4 753.8,310.6 763.9,349.0 770.0,388.3 772.0,428.0 772.0,1424.0 772.0,1440.0" fill="rgba(60,200,120,0.12)" stroke="#3c8" stroke-width="2"/>
<polyline points="140.0,1424.0 28.0,1200.0 28.0,428.0 30.0,388.3 36.1,349.0 46.2,310.6 60.2,273.4 77.8,238.0 99.0,204.6 123.6,173.7 151.1,145.6 181.3,120.6 214.0,98.9 248.7,80.9 285.0,66.6 322.7,56.3 361.1,50.1 400.0,48.0 438.9,50.1 477.3,56.3 515.0,66.6 551.3,80.9 586.0,98.9 618.7,120.6 648.9,145.6 676.4,173.7 701.0,204.6 722.2,238.0 739.8,273.4 753.8,310.6 763.9,349.0 770.0,388.3 772.0,428.0 772.0,1424.0" fill="none" stroke="#e33" stroke-width="12" stroke-linecap="round" stroke-linejoin="round" opacity="0.85"/>
<polyline points="708.0,1424.0 772.0,1424.0" fill="none" stroke="#e33" stroke-width="12" stroke-linecap="round" stroke-linejoin="round" opacity="0.85"/>
<polyline points="708.0,500.0 708.0,1424.0" fill="none" stroke="#e33" stroke-width="12" stroke-linecap="round" stroke-linejoin="round" opacity="0.85"/>
<polyline points="708.0,1200.0 596.0,1424.0" fill="none" stroke="#e33" stroke-width="12" stroke-linecap="round" stroke-linejoin="round" opacity="0.85"/>
<polyline points="772.0,444.0 708.0,500.0" fill="none" stroke="#ea3" stroke-width="12" stroke-linecap="round" stroke-linejoin="round" opacity="0.85"/>
<polyline points="28.0,744.0 48.0,820.0 72.0,880.0 100.0,932.0" fill="none" stroke="#e33" stroke-width="12" stroke-linecap="round" stroke-linejoin="round" opacity="0.85"/>
<polyline points="708.0,800.0 688.0,864.0 664.0,904.0 640.0,936.0" fill="none" stroke="#e33" stroke-width="12" stroke-linecap="round" stroke-linejoin="round" opacity="0.85"/>
<polyline points="92.0,1000.0 92.0,1208.0 218.4,1277.0" fill="none" stroke="#e33" stroke-width="12" stroke-linecap="round" stroke-linejoin="round" opacity="0.85"/>
<polyline points="644.0,1000.0 644.0,1208.0 517.6,1277.0" fill="none" stroke="#e33" stroke-width="12" stroke-linecap="round" stroke-linejoin="round" opacity="0.85"/>
<polyline points="156.0,1040.0 156.0,1168.0 220.0,1212.0 156.0,1040.0" fill="none" stroke="#e33" stroke-width="12" stroke-linecap="round" stroke-linejoin="round" opacity="0.85"/>
<polyline points="580.0,1040.0 580.0,1168.0 516.0,1212.0 580.0,1040.0" fill="none" stroke="#e33" stroke-width="12" stroke-linecap="round" stroke-linejoin="round" opacity="0.85"/>
<circle cx="60" cy="1176" r="20" fill="none" stroke="#39f" stroke-width="3" stroke-dasharray="6 6"/>
<circle cx="676" cy="1176" r="20" fill="none" stroke="#39f" stroke-width="3" stroke-dasharray="6 6"/>
<circle cx="368" cy="1400" r="20" fill="none" stroke="#e33" stroke-width="3"/>
<circle cx="224" cy="572" r="38" fill="none" stroke="#e33" stroke-width="3"/>
<circle cx="368" cy="528" r="38" fill="none" stroke="#e33" stroke-width="3"/>
<circle cx="512" cy="572" r="38" fill="none" stroke="#e33" stroke-width="3"/>
<polyline points="128.0,856.0 128.0,420.0" fill="none" stroke="#e33" stroke-width="12" stroke-linecap="round" stroke-linejoin="round" opacity="0.85"/>
<rect x="34" y="410" width="88" height="490" fill="rgba(80,200,255,0.12)" stroke="#39f" stroke-dasharray="6 6"/>
<polyline points="34.0,660.0 122.0,660.0" fill="none" stroke="#39f" stroke-width="3" stroke-linecap="round" stroke-linejoin="round" stroke-dasharray="6 6" opacity="0.85"/>
<circle cx="368" cy="336" r="144" fill="none" stroke="#39f" stroke-width="3" stroke-dasharray="6 6"/>
<circle cx="368" cy="336" r="24" fill="none" stroke="#39f" stroke-width="3" stroke-dasharray="6 6"/>
<circle cx="584" cy="336" r="24" fill="none" stroke="#39f" stroke-width="3" stroke-dasharray="6 6"/>
<polyline points="694.0,584.0 694.0,628.0" fill="none" stroke="#e33" stroke-width="16" stroke-linecap="round" stroke-linejoin="round" opacity="0.85"/>
<polyline points="694.0,644.0 694.0,688.0" fill="none" stroke="#e33" stroke-width="16" stroke-linecap="round" stroke-linejoin="round" opacity="0.85"/>
<polyline points="694.0,704.0 694.0,748.0" fill="none" stroke="#e33" stroke-width="16" stroke-linecap="round" stroke-linejoin="round" opacity="0.85"/>
<polyline points="224.0,1296.0 331.4,1358.0" fill="none" stroke="#e33" stroke-width="40" stroke-linecap="round" stroke-linejoin="round" opacity="0.85"/>
<polyline points="224.0,1296.0 335.4,1241.6" fill="none" stroke="rgba(238,51,51,0.4)" stroke-width="40" stroke-linecap="round" stroke-linejoin="round" opacity="0.85"/>
<polyline points="512.0,1296.0 404.6,1358.0" fill="none" stroke="#e33" stroke-width="40" stroke-linecap="round" stroke-linejoin="round" opacity="0.85"/>
<polyline points="512.0,1296.0 400.6,1241.6" fill="none" stroke="rgba(238,51,51,0.4)" stroke-width="40" stroke-linecap="round" stroke-linejoin="round" opacity="0.85"/>
</svg>
